<svg width="897" height="316" viewBox="0 0 897 316" fill="none" xmlns="http://www.w3.org/2000/svg">
<rect width="897" height="316" fill="#F5F5F4"/>
<g filter="url(#filter0_d_0_13)">
<path d="M136.172 58.0732C138.256 54.2515 143.744 54.2515 145.828 58.0732L192.353 143.366C194.352 147.031 191.698 151.5 187.523 151.5H94.4766C90.3018 151.5 87.6484 147.031 89.6475 143.366L136.172 58.0732Z" stroke="#1E6EF4" stroke-width="5" shape-rendering="crispEdges"/>
</g>
<g filter="url(#filter1_d_0_13)">
<path d="M215.828 139.927C213.744 143.749 208.256 143.749 206.172 139.927L159.647 54.6338C157.648 50.9687 160.302 46.5 164.477 46.5L257.523 46.5C261.698 46.5 264.352 50.9687 262.353 54.6338L215.828 139.927Z" stroke="#1E6EF4" stroke-width="5" shape-rendering="crispEdges"/>
</g>
<g filter="url(#filter2_d_0_13)">
<path d="M206.172 176.073C208.256 172.251 213.744 172.251 215.828 176.073L262.353 261.366C264.352 265.031 261.698 269.5 257.523 269.5H164.477C160.302 269.5 157.648 265.031 159.647 261.366L206.172 176.073Z" stroke="#1E6EF4" stroke-width="5" shape-rendering="crispEdges"/>
</g>
<g filter="url(#filter3_d_0_13)">
<path d="M145.828 257.927C143.744 261.749 138.256 261.749 136.172 257.927L89.6475 172.634C87.6484 168.969 90.3018 164.5 94.4766 164.5H187.523C191.698 164.5 194.352 168.969 192.353 172.634L145.828 257.927Z" stroke="#1E6EF4" stroke-width="5" shape-rendering="crispEdges"/>
</g>
<path d="M334.114 139.455H342.636L357.455 175.636H358L372.818 139.455H381.341V186H374.659V152.318H374.227L360.5 185.932H354.955L341.227 152.295H340.795V186H334.114V139.455ZM401.165 186.773C398.953 186.773 396.953 186.364 395.165 185.545C393.377 184.712 391.96 183.508 390.915 181.932C389.884 180.356 389.369 178.424 389.369 176.136C389.369 174.167 389.748 172.545 390.506 171.273C391.263 170 392.286 168.992 393.574 168.25C394.862 167.508 396.301 166.947 397.892 166.568C399.483 166.189 401.104 165.902 402.756 165.705C404.847 165.462 406.544 165.265 407.847 165.114C409.15 164.947 410.097 164.682 410.688 164.318C411.278 163.955 411.574 163.364 411.574 162.545V162.386C411.574 160.402 411.013 158.864 409.892 157.773C408.786 156.682 407.134 156.136 404.938 156.136C402.65 156.136 400.847 156.644 399.528 157.659C398.225 158.659 397.324 159.773 396.824 161L390.438 159.545C391.195 157.424 392.301 155.712 393.756 154.409C395.225 153.091 396.915 152.136 398.824 151.545C400.733 150.939 402.741 150.636 404.847 150.636C406.241 150.636 407.718 150.803 409.278 151.136C410.854 151.455 412.324 152.045 413.688 152.909C415.066 153.773 416.195 155.008 417.074 156.614C417.953 158.205 418.392 160.273 418.392 162.818V186H411.756V181.227H411.483C411.044 182.106 410.384 182.97 409.506 183.818C408.627 184.667 407.498 185.371 406.119 185.932C404.741 186.492 403.089 186.773 401.165 186.773ZM402.642 181.318C404.521 181.318 406.127 180.947 407.46 180.205C408.809 179.462 409.831 178.492 410.528 177.295C411.241 176.083 411.597 174.788 411.597 173.409V168.909C411.354 169.152 410.884 169.379 410.188 169.591C409.506 169.788 408.725 169.962 407.847 170.114C406.968 170.25 406.112 170.379 405.278 170.5C404.445 170.606 403.748 170.697 403.188 170.773C401.869 170.939 400.665 171.22 399.574 171.614C398.498 172.008 397.634 172.576 396.983 173.318C396.347 174.045 396.028 175.015 396.028 176.227C396.028 177.909 396.65 179.182 397.892 180.045C399.134 180.894 400.718 181.318 402.642 181.318ZM440.511 186.682C437.693 186.682 435.178 185.962 432.966 184.523C430.769 183.068 429.042 181 427.784 178.318C426.542 175.621 425.92 172.386 425.92 168.614C425.92 164.841 426.549 161.614 427.807 158.932C429.08 156.25 430.822 154.197 433.034 152.773C435.246 151.348 437.754 150.636 440.557 150.636C442.723 150.636 444.466 151 445.784 151.727C447.117 152.439 448.148 153.273 448.875 154.227C449.617 155.182 450.193 156.023 450.602 156.75H451.011V139.455H457.807V186H451.17V180.568H450.602C450.193 181.311 449.602 182.159 448.83 183.114C448.072 184.068 447.027 184.902 445.693 185.614C444.36 186.326 442.633 186.682 440.511 186.682ZM442.011 180.886C443.966 180.886 445.617 180.371 446.966 179.341C448.33 178.295 449.36 176.848 450.057 175C450.769 173.152 451.125 171 451.125 168.545C451.125 166.121 450.777 164 450.08 162.182C449.383 160.364 448.36 158.947 447.011 157.932C445.663 156.917 443.996 156.409 442.011 156.409C439.966 156.409 438.261 156.939 436.898 158C435.534 159.061 434.504 160.508 433.807 162.341C433.125 164.174 432.784 166.242 432.784 168.545C432.784 170.879 433.133 172.977 433.83 174.841C434.527 176.705 435.557 178.182 436.92 179.273C438.299 180.348 439.996 180.886 442.011 180.886ZM467.506 186V151.091H474.074V156.636H474.438C475.074 154.758 476.195 153.28 477.801 152.205C479.422 151.114 481.256 150.568 483.301 150.568C483.725 150.568 484.225 150.583 484.801 150.614C485.392 150.644 485.854 150.682 486.188 150.727V157.227C485.915 157.152 485.43 157.068 484.733 156.977C484.036 156.871 483.339 156.818 482.642 156.818C481.036 156.818 479.604 157.159 478.347 157.841C477.104 158.508 476.119 159.439 475.392 160.636C474.665 161.818 474.301 163.167 474.301 164.682V186H467.506ZM505.864 186.705C502.424 186.705 499.462 185.97 496.977 184.5C494.508 183.015 492.598 180.932 491.25 178.25C489.917 175.553 489.25 172.394 489.25 168.773C489.25 165.197 489.917 162.045 491.25 159.318C492.598 156.591 494.477 154.462 496.886 152.932C499.311 151.402 502.144 150.636 505.386 150.636C507.356 150.636 509.265 150.962 511.114 151.614C512.962 152.265 514.621 153.288 516.091 154.682C517.561 156.076 518.72 157.886 519.568 160.114C520.417 162.326 520.841 165.015 520.841 168.182V170.591H493.091V165.5H514.182C514.182 163.712 513.818 162.129 513.091 160.75C512.364 159.356 511.341 158.258 510.023 157.455C508.72 156.652 507.189 156.25 505.432 156.25C503.523 156.25 501.856 156.72 500.432 157.659C499.023 158.583 497.932 159.795 497.159 161.295C496.402 162.78 496.023 164.394 496.023 166.136V170.114C496.023 172.447 496.432 174.432 497.25 176.068C498.083 177.705 499.242 178.955 500.727 179.818C502.212 180.667 503.947 181.091 505.932 181.091C507.22 181.091 508.394 180.909 509.455 180.545C510.515 180.167 511.432 179.606 512.205 178.864C512.977 178.121 513.568 177.205 513.977 176.114L520.409 177.273C519.894 179.167 518.97 180.826 517.636 182.25C516.318 183.659 514.659 184.758 512.659 185.545C510.674 186.318 508.409 186.705 505.864 186.705ZM528.926 139.455H537.449L552.267 175.636H552.812L567.631 139.455H576.153V186H569.472V152.318H569.04L555.312 185.932H549.767L536.04 152.295H535.608V186H528.926V139.455ZM595.977 186.773C593.765 186.773 591.765 186.364 589.977 185.545C588.189 184.712 586.773 183.508 585.727 181.932C584.697 180.356 584.182 178.424 584.182 176.136C584.182 174.167 584.561 172.545 585.318 171.273C586.076 170 587.098 168.992 588.386 168.25C589.674 167.508 591.114 166.947 592.705 166.568C594.295 166.189 595.917 165.902 597.568 165.705C599.659 165.462 601.356 165.265 602.659 165.114C603.962 164.947 604.909 164.682 605.5 164.318C606.091 163.955 606.386 163.364 606.386 162.545V162.386C606.386 160.402 605.826 158.864 604.705 157.773C603.598 156.682 601.947 156.136 599.75 156.136C597.462 156.136 595.659 156.644 594.341 157.659C593.038 158.659 592.136 159.773 591.636 161L585.25 159.545C586.008 157.424 587.114 155.712 588.568 154.409C590.038 153.091 591.727 152.136 593.636 151.545C595.545 150.939 597.553 150.636 599.659 150.636C601.053 150.636 602.53 150.803 604.091 151.136C605.667 151.455 607.136 152.045 608.5 152.909C609.879 153.773 611.008 155.008 611.886 156.614C612.765 158.205 613.205 160.273 613.205 162.818V186H606.568V181.227H606.295C605.856 182.106 605.197 182.97 604.318 183.818C603.439 184.667 602.311 185.371 600.932 185.932C599.553 186.492 597.902 186.773 595.977 186.773ZM597.455 181.318C599.333 181.318 600.939 180.947 602.273 180.205C603.621 179.462 604.644 178.492 605.341 177.295C606.053 176.083 606.409 174.788 606.409 173.409V168.909C606.167 169.152 605.697 169.379 605 169.591C604.318 169.788 603.538 169.962 602.659 170.114C601.78 170.25 600.924 170.379 600.091 170.5C599.258 170.606 598.561 170.697 598 170.773C596.682 170.939 595.477 171.22 594.386 171.614C593.311 172.008 592.447 172.576 591.795 173.318C591.159 174.045 590.841 175.015 590.841 176.227C590.841 177.909 591.462 179.182 592.705 180.045C593.947 180.894 595.53 181.318 597.455 181.318ZM638.551 151.091V156.545H619.483V151.091H638.551ZM624.597 142.727H631.392V175.75C631.392 177.068 631.589 178.061 631.983 178.727C632.377 179.379 632.884 179.826 633.506 180.068C634.142 180.295 634.831 180.409 635.574 180.409C636.119 180.409 636.597 180.371 637.006 180.295C637.415 180.22 637.733 180.159 637.96 180.114L639.188 185.727C638.794 185.879 638.233 186.03 637.506 186.182C636.778 186.348 635.869 186.439 634.778 186.455C632.991 186.485 631.324 186.167 629.778 185.5C628.233 184.833 626.983 183.803 626.028 182.409C625.074 181.015 624.597 179.265 624.597 177.159V142.727ZM653.614 165.273V186H646.818V139.455H653.523V156.773H653.955C654.773 154.894 656.023 153.402 657.705 152.295C659.386 151.189 661.583 150.636 664.295 150.636C666.689 150.636 668.78 151.129 670.568 152.114C672.371 153.098 673.765 154.568 674.75 156.523C675.75 158.462 676.25 160.886 676.25 163.795V186H669.455V164.614C669.455 162.053 668.795 160.068 667.477 158.659C666.159 157.235 664.326 156.523 661.977 156.523C660.371 156.523 658.932 156.864 657.659 157.545C656.402 158.227 655.409 159.227 654.682 160.545C653.97 161.848 653.614 163.424 653.614 165.273Z" fill="#3B3B3B"/>
<defs>
<filter id="filter0_d_0_13" x="66.4651" y="36.7066" width="149.07" height="141.293" filterUnits="userSpaceOnUse" color-interpolation-filters="sRGB">
<feFlood flood-opacity="0" result="BackgroundImageFix"/>
<feColorMatrix in="SourceAlpha" type="matrix" values="0 0 0 0 0 0 0 0 0 0 0 0 0 0 0 0 0 0 127 0" result="hardAlpha"/>
<feOffset dy="4"/>
<feGaussianBlur stdDeviation="10"/>
<feComposite in2="hardAlpha" operator="out"/>
<feColorMatrix type="matrix" values="0 0 0 0 0.117647 0 0 0 0 0.431373 0 0 0 0 0.956863 0 0 0 0.7 0"/>
<feBlend mode="normal" in2="BackgroundImageFix" result="effect1_dropShadow_0_13"/>
<feBlend mode="normal" in="SourceGraphic" in2="effect1_dropShadow_0_13" result="shape"/>
</filter>
<filter id="filter1_d_0_13" x="136.465" y="28" width="149.07" height="141.293" filterUnits="userSpaceOnUse" color-interpolation-filters="sRGB">
<feFlood flood-opacity="0" result="BackgroundImageFix"/>
<feColorMatrix in="SourceAlpha" type="matrix" values="0 0 0 0 0 0 0 0 0 0 0 0 0 0 0 0 0 0 127 0" result="hardAlpha"/>
<feOffset dy="4"/>
<feGaussianBlur stdDeviation="10"/>
<feComposite in2="hardAlpha" operator="out"/>
<feColorMatrix type="matrix" values="0 0 0 0 0.117647 0 0 0 0 0.431373 0 0 0 0 0.956863 0 0 0 0.7 0"/>
<feBlend mode="normal" in2="BackgroundImageFix" result="effect1_dropShadow_0_13"/>
<feBlend mode="normal" in="SourceGraphic" in2="effect1_dropShadow_0_13" result="shape"/>
</filter>
<filter id="filter2_d_0_13" x="136.465" y="154.707" width="149.07" height="141.293" filterUnits="userSpaceOnUse" color-interpolation-filters="sRGB">
<feFlood flood-opacity="0" result="BackgroundImageFix"/>
<feColorMatrix in="SourceAlpha" type="matrix" values="0 0 0 0 0 0 0 0 0 0 0 0 0 0 0 0 0 0 127 0" result="hardAlpha"/>
<feOffset dy="4"/>
<feGaussianBlur stdDeviation="10"/>
<feComposite in2="hardAlpha" operator="out"/>
<feColorMatrix type="matrix" values="0 0 0 0 0.117647 0 0 0 0 0.431373 0 0 0 0 0.956863 0 0 0 0.7 0"/>
<feBlend mode="normal" in2="BackgroundImageFix" result="effect1_dropShadow_0_13"/>
<feBlend mode="normal" in="SourceGraphic" in2="effect1_dropShadow_0_13" result="shape"/>
</filter>
<filter id="filter3_d_0_13" x="66.465" y="146" width="149.07" height="141.293" filterUnits="userSpaceOnUse" color-interpolation-filters="sRGB">
<feFlood flood-opacity="0" result="BackgroundImageFix"/>
<feColorMatrix in="SourceAlpha" type="matrix" values="0 0 0 0 0 0 0 0 0 0 0 0 0 0 0 0 0 0 127 0" result="hardAlpha"/>
<feOffset dy="4"/>
<feGaussianBlur stdDeviation="10"/>
<feComposite in2="hardAlpha" operator="out"/>
<feColorMatrix type="matrix" values="0 0 0 0 0.117647 0 0 0 0 0.431373 0 0 0 0 0.956863 0 0 0 0.7 0"/>
<feBlend mode="normal" in2="BackgroundImageFix" result="effect1_dropShadow_0_13"/>
<feBlend mode="normal" in="SourceGraphic" in2="effect1_dropShadow_0_13" result="shape"/>
</filter>
</defs>
</svg>
