<svg width="220" height="268" viewBox="0 0 220 268" fill="none" xmlns="http://www.w3.org/2000/svg">
<g filter="url(#filter0_d_245_1068)">
<path d="M68.8545 29.3545C71.5076 24.4905 78.4924 24.4905 81.1455 29.3545L127.669 114.648C130.213 119.313 126.837 125 121.523 125H28.4766C23.1633 125 19.787 119.313 22.3311 114.648L68.8545 29.3545Z" stroke="#FF6B00" stroke-width="2" shape-rendering="crispEdges"/>
</g>
<g filter="url(#filter1_d_245_1068)">
<path d="M151.146 112.646C148.492 117.51 141.508 117.51 138.854 112.646L92.3311 27.3516C89.787 22.687 93.1633 17 98.4766 17L191.523 17C196.837 17 200.213 22.687 197.669 27.3516L151.146 112.646Z" stroke="#FF6B00" stroke-width="2" shape-rendering="crispEdges"/>
</g>
<g filter="url(#filter2_d_245_1068)">
<path d="M138.854 147.354C141.508 142.49 148.492 142.49 151.146 147.354L197.669 232.648C200.213 237.313 196.837 243 191.523 243H98.4766C93.1633 243 89.787 237.313 92.3311 232.648L138.854 147.354Z" stroke="#FF6B00" stroke-width="2" shape-rendering="crispEdges"/>
</g>
<g filter="url(#filter3_d_245_1068)">
<path d="M81.1455 230.646C78.4924 235.51 71.5076 235.51 68.8545 230.646L22.3311 145.352C19.787 140.687 23.1633 135 28.4766 135H121.523C126.837 135 130.213 140.687 127.669 145.352L81.1455 230.646Z" stroke="#FF6B00" stroke-width="2" shape-rendering="crispEdges"/>
</g>
<defs>
<filter id="filter0_d_245_1068" x="0.465088" y="8.7066" width="149.07" height="141.293" filterUnits="userSpaceOnUse" color-interpolation-filters="sRGB">
<feFlood flood-opacity="0" result="BackgroundImageFix"/>
<feColorMatrix in="SourceAlpha" type="matrix" values="0 0 0 0 0 0 0 0 0 0 0 0 0 0 0 0 0 0 127 0" result="hardAlpha"/>
<feOffset dy="4"/>
<feGaussianBlur stdDeviation="10"/>
<feComposite in2="hardAlpha" operator="out"/>
<feColorMatrix type="matrix" values="0 0 0 0 1 0 0 0 0 0.418367 0 0 0 0 0 0 0 0 1 0"/>
<feBlend mode="normal" in2="BackgroundImageFix" result="effect1_dropShadow_245_1068"/>
<feBlend mode="normal" in="SourceGraphic" in2="effect1_dropShadow_245_1068" result="shape"/>
</filter>
<filter id="filter1_d_245_1068" x="70.465" y="0" width="149.07" height="141.293" filterUnits="userSpaceOnUse" color-interpolation-filters="sRGB">
<feFlood flood-opacity="0" result="BackgroundImageFix"/>
<feColorMatrix in="SourceAlpha" type="matrix" values="0 0 0 0 0 0 0 0 0 0 0 0 0 0 0 0 0 0 127 0" result="hardAlpha"/>
<feOffset dy="4"/>
<feGaussianBlur stdDeviation="10"/>
<feComposite in2="hardAlpha" operator="out"/>
<feColorMatrix type="matrix" values="0 0 0 0 1 0 0 0 0 0.418367 0 0 0 0 0 0 0 0 1 0"/>
<feBlend mode="normal" in2="BackgroundImageFix" result="effect1_dropShadow_245_1068"/>
<feBlend mode="normal" in="SourceGraphic" in2="effect1_dropShadow_245_1068" result="shape"/>
</filter>
<filter id="filter2_d_245_1068" x="70.4651" y="126.707" width="149.07" height="141.293" filterUnits="userSpaceOnUse" color-interpolation-filters="sRGB">
<feFlood flood-opacity="0" result="BackgroundImageFix"/>
<feColorMatrix in="SourceAlpha" type="matrix" values="0 0 0 0 0 0 0 0 0 0 0 0 0 0 0 0 0 0 127 0" result="hardAlpha"/>
<feOffset dy="4"/>
<feGaussianBlur stdDeviation="10"/>
<feComposite in2="hardAlpha" operator="out"/>
<feColorMatrix type="matrix" values="0 0 0 0 1 0 0 0 0 0.418367 0 0 0 0 0 0 0 0 1 0"/>
<feBlend mode="normal" in2="BackgroundImageFix" result="effect1_dropShadow_245_1068"/>
<feBlend mode="normal" in="SourceGraphic" in2="effect1_dropShadow_245_1068" result="shape"/>
</filter>
<filter id="filter3_d_245_1068" x="0.465088" y="118" width="149.07" height="141.293" filterUnits="userSpaceOnUse" color-interpolation-filters="sRGB">
<feFlood flood-opacity="0" result="BackgroundImageFix"/>
<feColorMatrix in="SourceAlpha" type="matrix" values="0 0 0 0 0 0 0 0 0 0 0 0 0 0 0 0 0 0 127 0" result="hardAlpha"/>
<feOffset dy="4"/>
<feGaussianBlur stdDeviation="10"/>
<feComposite in2="hardAlpha" operator="out"/>
<feColorMatrix type="matrix" values="0 0 0 0 1 0 0 0 0 0.418367 0 0 0 0 0 0 0 0 1 0"/>
<feBlend mode="normal" in2="BackgroundImageFix" result="effect1_dropShadow_245_1068"/>
<feBlend mode="normal" in="SourceGraphic" in2="effect1_dropShadow_245_1068" result="shape"/>
</filter>
</defs>
</svg>
